<svg xmlns="http://www.w3.org/2000/svg" width="24.991" height="29.008" viewBox="0 0 24.991 29.008"><defs><style>.a{fill:#fff;}</style></defs><path class="a" d="M916.75,3312.179a.68.68,0,1,1,.692-.68A.683.683,0,0,1,916.75,3312.179Zm7.49,0a.68.68,0,1,1,.674-.68A.687.687,0,0,1,924.241,3312.179Zm-14.412,3.209a1.806,1.806,0,0,0-1.828,1.779v7.5a1.819,1.819,0,0,0,3.639,0v-7.5A1.8,1.8,0,0,0,909.828,3315.388Zm18.814.331H912.349v11.615a1.93,1.93,0,0,0,1.952,1.918h1.313l.018,3.959a1.819,1.819,0,0,0,3.639,0v-3.959h2.449v3.959a1.828,1.828,0,0,0,3.656,0v-3.959h1.331a1.926,1.926,0,0,0,1.935-1.918Zm-4.118-7.063,1.26-2.284a.252.252,0,0,0-.089-.349.284.284,0,0,0-.355.1l-1.278,2.3a9.055,9.055,0,0,0-7.135,0l-1.278-2.3a.284.284,0,0,0-.355-.1.252.252,0,0,0-.089.349l1.26,2.284a7.267,7.267,0,0,0-4.189,6.435H928.7A7.281,7.281,0,0,0,924.524,3308.657Zm8.467,8.51a1.82,1.82,0,0,0-3.639,0v7.5a1.82,1.82,0,0,0,3.639,0Z" transform="translate(-908 -3306)"/></svg>