<svg xmlns="http://www.w3.org/2000/svg" width="20.995" height="23.999" viewBox="0 0 20.995 23.999"><defs><style>.a{fill:#fff;}</style></defs><path class="a" d="M607.995,3325.519a4.575,4.575,0,0,1-2.381-1.817,5.349,5.349,0,0,1-1.04-3.216,4.977,4.977,0,0,1,.98-2.986,9.436,9.436,0,0,1,1.718-1.7,7.516,7.516,0,0,0-1.567-1.442,5.676,5.676,0,0,0-3.21-.937,8.85,8.85,0,0,0-2.607.49,7.835,7.835,0,0,1-2.155.49,9.975,9.975,0,0,1-2.08-.433,10.349,10.349,0,0,0-2.668-.433,5.283,5.283,0,0,0-4.28,2.077A8.3,8.3,0,0,0,587,3321a14.273,14.273,0,0,0,2.216,7.254c1.492,2.481,2.984,3.736,4.537,3.736a5.688,5.688,0,0,0,1.99-.49,6.066,6.066,0,0,1,2.14-.476,6.962,6.962,0,0,1,2.276.462,7.191,7.191,0,0,0,2.11.461c1.281,0,2.577-.937,3.874-2.827A14.087,14.087,0,0,0,607.995,3325.519Zm-5.667-16.917c0-.1-.015-.187-.015-.289-.015-.086-.045-.187-.075-.317a6.074,6.074,0,0,0-3.768,2.135,6.389,6.389,0,0,0-1.175,3.707,8.292,8.292,0,0,0,1.567-.245,4.288,4.288,0,0,0,1.628-1.038,5.911,5.911,0,0,0,1.4-1.99A5.319,5.319,0,0,0,602.328,3308.6Z" transform="translate(-587 -3307.996)"/></svg>